<svg version="1.1" viewBox="0.0 0.0 600.0 371.0" fill="none" stroke="none" stroke-linecap="square" stroke-miterlimit="10" width="600" height="371" xmlns:xlink="http://www.w3.org/1999/xlink" xmlns="http://www.w3.org/2000/svg"><path fill="#ffffff" d="M0 0L600.0 0L600.0 371.0L0 371.0L0 0Z" fill-rule="nonzero"/><path stroke="#333333" stroke-width="1.0" stroke-linecap="butt" d="M107.5 300.5L581.5 300.5" fill-rule="nonzero"/><path stroke="#cccccc" stroke-width="1.0" stroke-linecap="butt" d="M107.5 258.5L581.5 258.5" fill-rule="nonzero"/><path stroke="#cccccc" stroke-width="1.0" stroke-linecap="butt" d="M107.5 215.5L581.5 215.5" fill-rule="nonzero"/><path stroke="#cccccc" stroke-width="1.0" stroke-linecap="butt" d="M107.5 173.5L581.5 173.5" fill-rule="nonzero"/><path stroke="#cccccc" stroke-width="1.0" stroke-linecap="butt" d="M107.5 130.5L581.5 130.5" fill-rule="nonzero"/><path stroke="#cccccc" stroke-width="1.0" stroke-linecap="butt" d="M107.5 88.5L581.5 88.5" fill-rule="nonzero"/><clipPath id="id_0"><path d="M107.55 88.28333L581.45 88.28333L581.45 300.45L107.55 300.45L107.55 88.28333Z" clip-rule="nonzero"/></clipPath><path stroke="#000000" stroke-width="2.0" stroke-linecap="butt" stroke-opacity="0.0" clip-path="url(#id_0)" d="M150.0 300.0L131.0 300.0L131.0 287.0C131.0 285.89542 131.89543 285.0 133.0 285.0L148.0 285.0C149.10457 285.0 150.0 285.89542 150.0 287.0Z" fill-rule="nonzero"/><path fill="#cc0000" clip-path="url(#id_0)" d="M150.0 300.0L131.0 300.0L131.0 287.0C131.0 285.89542 131.89543 285.0 133.0 285.0L148.0 285.0C149.10457 285.0 150.0 285.89542 150.0 287.0Z" fill-rule="nonzero"/><path stroke="#000000" stroke-width="2.0" stroke-linecap="butt" stroke-opacity="0.0" clip-path="url(#id_0)" d="M215.0 300.0L196.0 300.0L196.0 273.0C196.0 271.89542 196.89543 271.0 198.0 271.0L213.0 271.0C214.10457 271.0 215.0 271.89542 215.0 273.0Z" fill-rule="nonzero"/><path fill="#cc0000" clip-path="url(#id_0)" d="M215.0 300.0L196.0 300.0L196.0 273.0C196.0 271.89542 196.89543 271.0 198.0 271.0L213.0 271.0C214.10457 271.0 215.0 271.89542 215.0 273.0Z" fill-rule="nonzero"/><path stroke="#000000" stroke-width="2.0" stroke-linecap="butt" stroke-opacity="0.0" clip-path="url(#id_0)" d="M279.0 300.0L260.0 300.0L260.0 242.0C260.0 240.89543 260.89542 240.0 262.0 240.0L277.0 240.0C278.10458 240.0 279.0 240.89543 279.0 242.0Z" fill-rule="nonzero"/><path fill="#cc0000" clip-path="url(#id_0)" d="M279.0 300.0L260.0 300.0L260.0 242.0C260.0 240.89543 260.89542 240.0 262.0 240.0L277.0 240.0C278.10458 240.0 279.0 240.89543 279.0 242.0Z" fill-rule="nonzero"/><path stroke="#000000" stroke-width="2.0" stroke-linecap="butt" stroke-opacity="0.0" clip-path="url(#id_0)" d="M344.0 300.0L325.0 300.0L325.0 184.0C325.0 182.89543 325.89542 182.0 327.0 182.0L342.0 182.0C343.10458 182.0 344.0 182.89543 344.0 184.0Z" fill-rule="nonzero"/><path fill="#cc0000" clip-path="url(#id_0)" d="M344.0 300.0L325.0 300.0L325.0 184.0C325.0 182.89543 325.89542 182.0 327.0 182.0L342.0 182.0C343.10458 182.0 344.0 182.89543 344.0 184.0Z" fill-rule="nonzero"/><path stroke="#000000" stroke-width="2.0" stroke-linecap="butt" stroke-opacity="0.0" clip-path="url(#id_0)" d="M408.0 300.0L389.0 300.0L389.0 137.0C389.0 135.89543 389.89542 135.0 391.0 135.0L406.0 135.0C407.10458 135.0 408.0 135.89543 408.0 137.0Z" fill-rule="nonzero"/><path fill="#cc0000" clip-path="url(#id_0)" d="M408.0 300.0L389.0 300.0L389.0 137.0C389.0 135.89543 389.89542 135.0 391.0 135.0L406.0 135.0C407.10458 135.0 408.0 135.89543 408.0 137.0Z" fill-rule="nonzero"/><path stroke="#000000" stroke-width="2.0" stroke-linecap="butt" stroke-opacity="0.0" clip-path="url(#id_0)" d="M472.0 300.0L453.0 300.0L453.0 124.0C453.0 122.89543 453.89542 122.0 455.0 122.0L470.0 122.0C471.10458 122.0 472.0 122.89543 472.0 124.0Z" fill-rule="nonzero"/><path fill="#cc0000" clip-path="url(#id_0)" d="M472.0 300.0L453.0 300.0L453.0 124.0C453.0 122.89543 453.89542 122.0 455.0 122.0L470.0 122.0C471.10458 122.0 472.0 122.89543 472.0 124.0Z" fill-rule="nonzero"/><path stroke="#000000" stroke-width="2.0" stroke-linecap="butt" stroke-opacity="0.0" clip-path="url(#id_0)" d="M537.0 300.0L518.0 300.0L518.0 134.0C518.0 132.89543 518.89545 132.0 520.0 132.0L535.0 132.0C536.10455 132.0 537.0 132.89543 537.0 134.0Z" fill-rule="nonzero"/><path fill="#cc0000" clip-path="url(#id_0)" d="M537.0 300.0L518.0 300.0L518.0 134.0C518.0 132.89543 518.89545 132.0 520.0 132.0L535.0 132.0C536.10455 132.0 537.0 132.89543 537.0 134.0Z" fill-rule="nonzero"/><path stroke="#000000" stroke-width="2.0" stroke-linecap="butt" stroke-opacity="0.0" clip-path="url(#id_0)" d="M171.0 300.0L152.0 300.0L152.0 295.0C152.0 293.89542 152.89543 293.0 154.0 293.0L169.0 293.0C170.10457 293.0 171.0 293.89542 171.0 295.0Z" fill-rule="nonzero"/><path fill="#3c78d8" clip-path="url(#id_0)" d="M171.0 300.0L152.0 300.0L152.0 295.0C152.0 293.89542 152.89543 293.0 154.0 293.0L169.0 293.0C170.10457 293.0 171.0 293.89542 171.0 295.0Z" fill-rule="nonzero"/><path stroke="#000000" stroke-width="2.0" stroke-linecap="butt" stroke-opacity="0.0" clip-path="url(#id_0)" d="M236.0 300.0L217.0 300.0L217.0 289.0C217.0 287.89542 217.89543 287.0 219.0 287.0L234.0 287.0C235.10457 287.0 236.0 287.89542 236.0 289.0Z" fill-rule="nonzero"/><path fill="#3c78d8" clip-path="url(#id_0)" d="M236.0 300.0L217.0 300.0L217.0 289.0C217.0 287.89542 217.89543 287.0 219.0 287.0L234.0 287.0C235.10457 287.0 236.0 287.89542 236.0 289.0Z" fill-rule="nonzero"/><path stroke="#000000" stroke-width="2.0" stroke-linecap="butt" stroke-opacity="0.0" clip-path="url(#id_0)" d="M300.0 300.0L281.0 300.0L281.0 279.0C281.0 277.89542 281.89542 277.0 283.0 277.0L298.0 277.0C299.10458 277.0 300.0 277.89542 300.0 279.0Z" fill-rule="nonzero"/><path fill="#3c78d8" clip-path="url(#id_0)" d="M300.0 300.0L281.0 300.0L281.0 279.0C281.0 277.89542 281.89542 277.0 283.0 277.0L298.0 277.0C299.10458 277.0 300.0 277.89542 300.0 279.0Z" fill-rule="nonzero"/><path stroke="#000000" stroke-width="2.0" stroke-linecap="butt" stroke-opacity="0.0" clip-path="url(#id_0)" d="M365.0 300.0L346.0 300.0L346.0 255.0C346.0 253.89543 346.89542 253.0 348.0 253.0L363.0 253.0C364.10458 253.0 365.0 253.89543 365.0 255.0Z" fill-rule="nonzero"/><path fill="#3c78d8" clip-path="url(#id_0)" d="M365.0 300.0L346.0 300.0L346.0 255.0C346.0 253.89543 346.89542 253.0 348.0 253.0L363.0 253.0C364.10458 253.0 365.0 253.89543 365.0 255.0Z" fill-rule="nonzero"/><path stroke="#000000" stroke-width="2.0" stroke-linecap="butt" stroke-opacity="0.0" clip-path="url(#id_0)" d="M429.0 300.0L410.0 300.0L410.0 235.0C410.0 233.89543 410.89542 233.0 412.0 233.0L427.0 233.0C428.10458 233.0 429.0 233.89543 429.0 235.0Z" fill-rule="nonzero"/><path fill="#3c78d8" clip-path="url(#id_0)" d="M429.0 300.0L410.0 300.0L410.0 235.0C410.0 233.89543 410.89542 233.0 412.0 233.0L427.0 233.0C428.10458 233.0 429.0 233.89543 429.0 235.0Z" fill-rule="nonzero"/><path stroke="#000000" stroke-width="2.0" stroke-linecap="butt" stroke-opacity="0.0" clip-path="url(#id_0)" d="M493.0 300.0L474.0 300.0L474.0 234.0C474.0 232.89543 474.89542 232.0 476.0 232.0L491.0 232.0C492.10458 232.0 493.0 232.89543 493.0 234.0Z" fill-rule="nonzero"/><path fill="#3c78d8" clip-path="url(#id_0)" d="M493.0 300.0L474.0 300.0L474.0 234.0C474.0 232.89543 474.89542 232.0 476.0 232.0L491.0 232.0C492.10458 232.0 493.0 232.89543 493.0 234.0Z" fill-rule="nonzero"/><path stroke="#000000" stroke-width="2.0" stroke-linecap="butt" stroke-opacity="0.0" clip-path="url(#id_0)" d="M558.0 300.0L539.0 300.0L539.0 241.0C539.0 239.89543 539.89545 239.0 541.0 239.0L556.0 239.0C557.10455 239.0 558.0 239.89543 558.0 241.0Z" fill-rule="nonzero"/><path fill="#3c78d8" clip-path="url(#id_0)" d="M558.0 300.0L539.0 300.0L539.0 241.0C539.0 239.89543 539.89545 239.0 541.0 239.0L556.0 239.0C557.10455 239.0 558.0 239.89543 558.0 241.0Z" fill-rule="nonzero"/><path fill="#000000" d="M324.60938 349.45L324.60938 341.8719L321.78125 341.8719L321.78125 340.85626L328.59375 340.85626L328.59375 341.8719L325.75 341.8719L325.75 349.45L324.60938 349.45ZM329.29688 349.45L329.29688 340.85626L330.34375 340.85626L330.34375 343.9344Q331.07812 343.09064 332.20312 343.09064Q332.90625 343.09064 333.40625 343.3719Q333.92188 343.6375 334.14062 344.1219Q334.35938 344.59064 334.35938 345.5125L334.35938 349.45L333.3125 349.45L333.3125 345.5125Q333.3125 344.71564 332.96875 344.35626Q332.625 343.9969 332.0 343.9969Q331.53125 343.9969 331.10938 344.2469Q330.70312 344.48126 330.51562 344.90314Q330.34375 345.3094 330.34375 346.04376L330.34375 349.45L329.29688 349.45ZM336.28125 349.45L336.28125 343.23126L337.23438 343.23126L337.23438 344.16876Q337.59375 343.5125 337.89062 343.3094Q338.20312 343.09064 338.57812 343.09064Q339.10938 343.09064 339.65625 343.41876L339.29688 344.40314Q338.90625 344.16876 338.53125 344.16876Q338.17188 344.16876 337.89062 344.3875Q337.625 344.59064 337.51562 344.96564Q337.32812 345.52814 337.32812 346.1844L337.32812 349.45L336.28125 349.45ZM344.54688 347.45L345.64062 347.575Q345.39062 348.52814 344.6875 349.0594Q343.98438 349.59064 342.90625 349.59064Q341.54688 349.59064 340.73438 348.7469Q339.9375 347.90314 339.9375 346.3875Q339.9375 344.825 340.75 343.96564Q341.5625 343.09064 342.84375 343.09064Q344.09375 343.09064 344.875 343.9344Q345.67188 344.77814 345.67188 346.325Q345.67188 346.41876 345.67188 346.60626L341.03125 346.60626Q341.09375 347.6375 341.60938 348.1844Q342.125 348.71564 342.90625 348.71564Q343.48438 348.71564 343.89062 348.41876Q344.3125 348.10626 344.54688 347.45ZM341.09375 345.7469L344.5625 345.7469Q344.5 344.95 344.17188 344.5594Q343.65625 343.95 342.85938 343.95Q342.125 343.95 341.625 344.4344Q341.14062 344.91876 341.09375 345.7469ZM351.35938 348.6844Q350.76562 349.1844 350.21875 349.3875Q349.6875 349.59064 349.0625 349.59064Q348.03125 349.59064 347.48438 349.09064Q346.9375 348.59064 346.9375 347.8094Q346.9375 347.35626 347.14062 346.98126Q347.34375 346.59064 347.6875 346.3719Q348.03125 346.1375 348.45312 346.02814Q348.75 345.9344 349.39062 345.85626Q350.65625 345.71564 351.26562 345.4969Q351.26562 345.27814 351.26562 345.23126Q351.26562 344.575 350.96875 344.3094Q350.5625 343.96564 349.76562 343.96564Q349.03125 343.96564 348.67188 344.23126Q348.3125 344.48126 348.14062 345.1375L347.10938 344.9969Q347.25 344.34064 347.57812 343.9344Q347.90625 343.52814 348.51562 343.3094Q349.125 343.09064 349.92188 343.09064Q350.71875 343.09064 351.21875 343.27814Q351.71875 343.46564 351.95312 343.7469Q352.1875 344.02814 352.28125 344.46564Q352.32812 344.73126 352.32812 345.4344L352.32812 346.84064Q352.32812 348.3094 352.39062 348.7Q352.46875 349.09064 352.67188 349.45L351.5625 349.45Q351.40625 349.1219 351.35938 348.6844ZM351.26562 346.325Q350.6875 346.5594 349.54688 346.73126Q348.89062 346.825 348.625 346.95Q348.35938 347.0594 348.20312 347.27814Q348.0625 347.4969 348.0625 347.77814Q348.0625 348.2 348.375 348.48126Q348.70312 348.7625 349.3125 348.7625Q349.92188 348.7625 350.39062 348.4969Q350.875 348.23126 351.09375 347.7625Q351.26562 347.40314 351.26562 346.71564L351.26562 346.325ZM358.32812 349.45L358.32812 348.66876Q357.73438 349.59064 356.59375 349.59064Q355.84375 349.59064 355.21875 349.1844Q354.59375 348.7625 354.25 348.02814Q353.90625 347.29376 353.90625 346.34064Q353.90625 345.41876 354.21875 344.65314Q354.53125 343.8875 355.15625 343.4969Q355.78125 343.09064 356.54688 343.09064Q357.10938 343.09064 357.54688 343.325Q357.98438 343.5594 358.26562 343.9344L358.26562 340.85626L359.3125 340.85626L359.3125 349.45L358.32812 349.45ZM355.0 346.34064Q355.0 347.54376 355.5 348.1375Q356.0 348.71564 356.6875 348.71564Q357.375 348.71564 357.85938 348.15314Q358.34375 347.59064 358.34375 346.4344Q358.34375 345.15314 357.84375 344.5594Q357.35938 343.96564 356.64062 343.96564Q355.9375 343.96564 355.46875 344.54376Q355.0 345.10626 355.0 346.34064ZM360.875 347.59064L361.90625 347.4344Q362.0 348.0594 362.39062 348.3875Q362.79688 348.71564 363.53125 348.71564Q364.25 348.71564 364.59375 348.4344Q364.95312 348.1375 364.95312 347.73126Q364.95312 347.3719 364.64062 347.16876Q364.42188 347.02814 363.5625 346.8094Q362.40625 346.5125 361.95312 346.3094Q361.51562 346.09064 361.28125 345.71564Q361.04688 345.34064 361.04688 344.8719Q361.04688 344.46564 361.23438 344.10626Q361.42188 343.7469 361.75 343.5125Q362.0 343.34064 362.42188 343.21564Q362.84375 343.09064 363.34375 343.09064Q364.0625 343.09064 364.60938 343.3094Q365.17188 343.5125 365.4375 343.8719Q365.70312 344.23126 365.79688 344.825L364.76562 344.96564Q364.70312 344.4969 364.35938 344.23126Q364.03125 343.95 363.40625 343.95Q362.6875 343.95 362.375 344.2Q362.0625 344.4344 362.0625 344.7625Q362.0625 344.96564 362.1875 345.1219Q362.32812 345.29376 362.59375 345.40314Q362.75 345.46564 363.53125 345.66876Q364.65625 345.98126 365.09375 346.16876Q365.53125 346.35626 365.78125 346.71564Q366.03125 347.075 366.03125 347.6219Q366.03125 348.15314 365.71875 348.6219Q365.42188 349.075 364.84375 349.34064Q364.26562 349.59064 363.53125 349.59064Q362.3125 349.59064 361.67188 349.09064Q361.04688 348.575 360.875 347.59064Z" fill-rule="nonzero"/><path fill="#000000" d="M29.550013 229.2573L21.971888 229.2573L21.971888 232.08542L20.956263 232.08542L20.956263 225.27292L21.971888 225.27292L21.971888 228.11667L29.550013 228.11667L29.550013 229.2573ZM29.550013 224.5698L20.956263 224.5698L20.956263 223.52292L24.034388 223.52292Q23.190638 222.78854 23.190638 221.66354Q23.190638 220.96042 23.471888 220.46042Q23.737513 219.9448 24.221888 219.72604Q24.690638 219.5073 25.612513 219.5073L29.550013 219.5073L29.550013 220.55417L25.612513 220.55417Q24.815638 220.55417 24.456263 220.89792Q24.096888 221.24167 24.096888 221.86667Q24.096888 222.33542 24.346888 222.7573Q24.581263 223.16354 25.003138 223.35104Q25.409388 223.52292 26.143763 223.52292L29.550013 223.52292L29.550013 224.5698ZM29.550013 217.58542L23.331263 217.58542L23.331263 216.6323L24.268763 216.6323Q23.612513 216.27292 23.409388 215.97604Q23.190638 215.66354 23.190638 215.28854Q23.190638 214.7573 23.518763 214.21042L24.503138 214.5698Q24.268763 214.96042 24.268763 215.33542Q24.268763 215.6948 24.487513 215.97604Q24.690638 216.24167 25.065638 216.35104Q25.628138 216.53854 26.284388 216.53854L29.550013 216.53854L29.550013 217.58542ZM26.440638 213.96042Q24.706263 213.96042 23.878138 213.0073Q23.190638 212.21042 23.190638 211.05417Q23.190638 209.77292 24.034388 208.96042Q24.862513 208.1323 26.346888 208.1323Q27.550013 208.1323 28.237513 208.49167Q28.925013 208.85104 29.315638 209.55417Q29.690638 210.24167 29.690638 211.05417Q29.690638 212.35104 28.862513 213.16354Q28.018763 213.96042 26.440638 213.96042ZM26.440638 212.8823Q27.628138 212.8823 28.221888 212.36667Q28.815638 211.83542 28.815638 211.05417Q28.815638 210.2573 28.221888 209.74167Q27.628138 209.22604 26.409388 209.22604Q25.253138 209.22604 24.659388 209.7573Q24.065638 210.27292 24.065638 211.05417Q24.065638 211.83542 24.659388 212.36667Q25.237513 212.8823 26.440638 212.8823ZM29.550013 202.49167L28.628138 202.49167Q29.690638 203.22604 29.690638 204.47604Q29.690638 205.02292 29.487513 205.5073Q29.268763 205.97604 28.956263 206.21042Q28.628138 206.4448 28.159388 206.53854Q27.862513 206.60104 27.175013 206.60104L23.331263 206.60104L23.331263 205.53854L26.784388 205.53854Q27.596888 205.53854 27.893763 205.47604Q28.300013 205.3823 28.550013 205.0698Q28.784388 204.74167 28.784388 204.2573Q28.784388 203.78854 28.550013 203.3823Q28.300013 202.96042 27.878138 202.78854Q27.456263 202.60104 26.659388 202.60104L23.331263 202.60104L23.331263 201.55417L29.550013 201.55417L29.550013 202.49167ZM30.065638 199.77292L30.221888 198.74167Q30.690638 198.67917 30.909388 198.3823Q31.206263 197.99167 31.206263 197.3198Q31.206263 196.58542 30.909388 196.1948Q30.612513 195.78854 30.096888 195.64792Q29.768763 195.55417 28.737513 195.5698Q29.550013 196.2573 29.550013 197.28854Q29.550013 198.5698 28.628138 199.27292Q27.690638 199.97604 26.409388 199.97604Q25.518763 199.97604 24.768763 199.66354Q24.003138 199.33542 23.596888 198.72604Q23.190638 198.11667 23.190638 197.28854Q23.190638 196.17917 24.081263 195.46042L23.331263 195.46042L23.331263 194.49167L28.706263 194.49167Q30.159388 194.49167 30.768763 194.78854Q31.378138 195.08542 31.721888 195.72604Q32.08126 196.36667 32.08126 197.30417Q32.08126 198.41354 31.581263 199.10104Q31.081263 199.78854 30.065638 199.77292ZM26.331263 198.89792Q27.550013 198.89792 28.112513 198.41354Q28.675013 197.92917 28.675013 197.1948Q28.675013 196.46042 28.112513 195.97604Q27.550013 195.47604 26.362513 195.47604Q25.221888 195.47604 24.643763 195.99167Q24.065638 196.49167 24.065638 197.21042Q24.065638 197.91354 24.643763 198.41354Q25.206263 198.89792 26.331263 198.89792ZM29.550013 192.5698L20.956263 192.5698L20.956263 191.52292L24.034388 191.52292Q23.190638 190.78854 23.190638 189.66354Q23.190638 188.96042 23.471888 188.46042Q23.737513 187.9448 24.221888 187.72604Q24.690638 187.5073 25.612513 187.5073L29.550013 187.5073L29.550013 188.55417L25.612513 188.55417Q24.815638 188.55417 24.456263 188.89792Q24.096888 189.24167 24.096888 189.86667Q24.096888 190.33542 24.346888 190.7573Q24.581263 191.16354 25.003138 191.35104Q25.409388 191.52292 26.143763 191.52292L29.550013 191.52292L29.550013 192.5698ZM31.940638 185.5698L23.331263 185.5698L23.331263 184.61667L24.128138 184.61667Q23.659388 184.27292 23.425013 183.85104Q23.190638 183.41354 23.190638 182.80417Q23.190638 182.0073 23.596888 181.39792Q24.003138 180.78854 24.753138 180.49167Q25.503138 180.17917 26.393763 180.17917Q27.346888 180.17917 28.112513 180.52292Q28.878138 180.85104 29.284388 181.5073Q29.690638 182.16354 29.690638 182.8823Q29.690638 183.41354 29.471888 183.83542Q29.237513 184.2573 28.909388 184.52292L31.940638 184.52292L31.940638 185.5698ZM26.471888 184.61667Q27.675013 184.61667 28.253138 184.1323Q28.815638 183.64792 28.815638 182.96042Q28.815638 182.2573 28.221888 181.7573Q27.628138 181.2573 26.378138 181.2573Q25.190638 181.2573 24.612513 181.74167Q24.018763 182.22604 24.018763 182.91354Q24.018763 183.58542 24.643763 184.10104Q25.268763 184.61667 26.471888 184.61667ZM29.550013 174.49167L28.628138 174.49167Q29.690638 175.22604 29.690638 176.47604Q29.690638 177.02292 29.487513 177.5073Q29.268763 177.97604 28.956263 178.21042Q28.628138 178.4448 28.159388 178.53854Q27.862513 178.60104 27.175013 178.60104L23.331263 178.60104L23.331263 177.53854L26.784388 177.53854Q27.596888 177.53854 27.893763 177.47604Q28.300013 177.3823 28.550013 177.0698Q28.784388 176.74167 28.784388 176.2573Q28.784388 175.78854 28.550013 175.3823Q28.300013 174.96042 27.878138 174.78854Q27.456263 174.60104 26.659388 174.60104L23.331263 174.60104L23.331263 173.55417L29.550013 173.55417L29.550013 174.49167ZM28.612513 169.27292L29.534388 169.11667Q29.628138 169.5698 29.628138 169.91354Q29.628138 170.49167 29.456263 170.80417Q29.268763 171.11667 28.971888 171.2573Q28.675013 171.3823 27.721888 171.3823L24.143763 171.3823L24.143763 172.14792L23.331263 172.14792L23.331263 171.3823L21.784388 171.3823L21.159388 170.33542L23.331263 170.33542L23.331263 169.27292L24.143763 169.27292L24.143763 170.33542L27.784388 170.33542Q28.237513 170.33542 28.362513 170.28854Q28.487513 170.22604 28.565638 170.10104Q28.643763 169.97604 28.643763 169.74167Q28.643763 169.55417 28.612513 169.27292Z" fill-rule="nonzero"/><path fill="#000000" d="M65.05 300.21564Q65.05 298.6844 65.3625 297.7625Q65.675 296.825 66.28438 296.325Q66.90938 295.825 67.84688 295.825Q68.53438 295.825 69.05 296.10626Q69.58125 296.3875 69.925 296.91876Q70.26875 297.4344 70.45625 298.1844Q70.64375 298.9344 70.64375 300.21564Q70.64375 301.73126 70.33125 302.65314Q70.03438 303.575 69.40938 304.09064Q68.8 304.59064 67.84688 304.59064Q66.6125 304.59064 65.89375 303.7Q65.05 302.6375 65.05 300.21564ZM66.12813 300.21564Q66.12813 302.325 66.62813 303.02814Q67.12813 303.73126 67.84688 303.73126Q68.58125 303.73126 69.06563 303.02814Q69.56563 302.325 69.56563 300.21564Q69.56563 298.09064 69.06563 297.40314Q68.58125 296.7 67.83125 296.7Q67.1125 296.7 66.675 297.3094Q66.12813 298.09064 66.12813 300.21564ZM75.44063 304.45L75.44063 295.85626L77.15938 295.85626L79.19063 301.9344Q79.47188 302.79376 79.59688 303.21564Q79.7375 302.7469 80.05 301.84064L82.1125 295.85626L83.64375 295.85626L83.64375 304.45L82.55 304.45L82.55 297.2625L80.05 304.45L79.01875 304.45L76.53438 297.1375L76.53438 304.45L75.44063 304.45ZM84.425 304.45L84.425 295.85626L87.65938 295.85626Q88.64375 295.85626 89.2375 296.1219Q89.83125 296.3875 90.15938 296.9344Q90.50313 297.46564 90.50313 298.0594Q90.50313 298.60626 90.20625 299.09064Q89.90938 299.575 89.3 299.8719Q90.08125 300.10626 90.4875 300.66876Q90.90938 301.21564 90.90938 301.96564Q90.90938 302.5594 90.65938 303.09064Q90.40938 303.60626 90.03438 303.8875Q89.65938 304.16876 89.08125 304.3094Q88.51875 304.45 87.70625 304.45L84.425 304.45ZM85.56563 299.46564L87.425 299.46564Q88.175 299.46564 88.50313 299.3719Q88.94063 299.2469 89.15938 298.95Q89.37813 298.6375 89.37813 298.1844Q89.37813 297.7625 89.175 297.4344Q88.97188 297.10626 88.58125 296.9969Q88.20625 296.8719 87.28438 296.8719L85.56563 296.8719L85.56563 299.46564ZM85.56563 303.4344L87.70625 303.4344Q88.25313 303.4344 88.47188 303.3875Q88.87813 303.325 89.12813 303.16876Q89.39375 302.9969 89.56563 302.6844Q89.7375 302.3719 89.7375 301.96564Q89.7375 301.48126 89.4875 301.1219Q89.25313 300.7625 88.81563 300.6219Q88.37813 300.48126 87.55 300.48126L85.56563 300.48126L85.56563 303.4344ZM91.55 304.59064L94.03438 295.71564L94.87813 295.71564L92.39375 304.59064L91.55 304.59064ZM94.925 302.59064L95.95625 302.4344Q96.05 303.0594 96.44063 303.3875Q96.84688 303.71564 97.58125 303.71564Q98.3 303.71564 98.64375 303.4344Q99.00313 303.1375 99.00313 302.73126Q99.00313 302.3719 98.69063 302.16876Q98.47188 302.02814 97.6125 301.8094Q96.45625 301.5125 96.00313 301.3094Q95.56563 301.09064 95.33125 300.71564Q95.09688 300.34064 95.09688 299.8719Q95.09688 299.46564 95.28438 299.10626Q95.47188 298.7469 95.8 298.5125Q96.05 298.34064 96.47188 298.21564Q96.89375 298.09064 97.39375 298.09064Q98.1125 298.09064 98.65938 298.3094Q99.22188 298.5125 99.4875 298.8719Q99.75313 299.23126 99.84688 299.825L98.81563 299.96564Q98.75313 299.4969 98.40938 299.23126Q98.08125 298.95 97.45625 298.95Q96.7375 298.95 96.425 299.2Q96.1125 299.4344 96.1125 299.7625Q96.1125 299.96564 96.2375 300.1219Q96.37813 300.29376 96.64375 300.40314Q96.8 300.46564 97.58125 300.66876Q98.70625 300.98126 99.14375 301.16876Q99.58125 301.35626 99.83125 301.71564Q100.08125 302.075 100.08125 302.6219Q100.08125 303.15314 99.76875 303.6219Q99.47188 304.075 98.89375 304.34064Q98.31563 304.59064 97.58125 304.59064Q96.3625 304.59064 95.72188 304.09064Q95.09688 303.575 94.925 302.59064Z" fill-rule="nonzero"/><path fill="#000000" d="M58.05 259.76666L59.159374 259.6729Q59.284374 260.4854 59.721874 260.89166Q60.175 261.2979 60.815624 261.2979Q61.565624 261.2979 62.096874 260.7198Q62.628124 260.14166 62.628124 259.20416Q62.628124 258.2979 62.1125 257.7823Q61.6125 257.25104 60.784374 257.25104Q60.284374 257.25104 59.8625 257.4854Q59.45625 257.7198 59.221874 258.07916L58.2375 257.95416L59.065624 253.54791L63.346874 253.54791L63.346874 254.54791L59.909374 254.54791L59.45625 256.8604Q60.221874 256.31354 61.065624 256.31354Q62.190624 256.31354 62.95625 257.0948Q63.7375 257.87604 63.7375 259.1104Q63.7375 260.26666 63.065624 261.12604Q62.2375 262.1573 60.815624 262.1573Q59.64375 262.1573 58.89375 261.50104Q58.159374 260.8448 58.05 259.76666ZM65.05 257.7823Q65.05 256.25104 65.3625 255.32916Q65.675 254.39166 66.28438 253.89166Q66.90938 253.39166 67.84688 253.39166Q68.53438 253.39166 69.05 253.67291Q69.58125 253.95416 69.925 254.48541Q70.26875 255.00104 70.45625 255.75104Q70.64375 256.50104 70.64375 257.7823Q70.64375 259.2979 70.33125 260.2198Q70.03438 261.14166 69.40938 261.6573Q68.8 262.1573 67.84688 262.1573Q66.6125 262.1573 65.89375 261.26666Q65.05 260.20416 65.05 257.7823ZM66.12813 257.7823Q66.12813 259.89166 66.62813 260.5948Q67.12813 261.2979 67.84688 261.2979Q68.58125 261.2979 69.06563 260.5948Q69.56563 259.89166 69.56563 257.7823Q69.56563 255.65729 69.06563 254.96979Q68.58125 254.26666 67.83125 254.26666Q67.1125 254.26666 66.675 254.87604Q66.12813 255.65729 66.12813 257.7823ZM75.44063 262.01666L75.44063 253.42291L77.15938 253.42291L79.19063 259.50104Q79.47188 260.3604 79.59688 260.7823Q79.7375 260.31354 80.05 259.4073L82.1125 253.42291L83.64375 253.42291L83.64375 262.01666L82.55 262.01666L82.55 254.82916L80.05 262.01666L79.01875 262.01666L76.53438 254.70416L76.53438 262.01666L75.44063 262.01666ZM84.425 262.01666L84.425 253.42291L87.65938 253.42291Q88.64375 253.42291 89.2375 253.68854Q89.83125 253.95416 90.15938 254.50104Q90.50313 255.03229 90.50313 255.62604Q90.50313 256.1729 90.20625 256.6573Q89.90938 257.14166 89.3 257.43854Q90.08125 257.6729 90.4875 258.2354Q90.90938 258.7823 90.90938 259.5323Q90.90938 260.12604 90.65938 260.6573Q90.40938 261.1729 90.03438 261.45416Q89.65938 261.7354 89.08125 261.87604Q88.51875 262.01666 87.70625 262.01666L84.425 262.01666ZM85.56563 257.0323L87.425 257.0323Q88.175 257.0323 88.50313 256.93854Q88.94063 256.81354 89.15938 256.51666Q89.37813 256.20416 89.37813 255.75104Q89.37813 255.32916 89.175 255.00104Q88.97188 254.67291 88.58125 254.56354Q88.20625 254.43854 87.28438 254.43854L85.56563 254.43854L85.56563 257.0323ZM85.56563 261.00104L87.70625 261.00104Q88.25313 261.00104 88.47188 260.95416Q88.87813 260.89166 89.12813 260.7354Q89.39375 260.56354 89.56563 260.25104Q89.7375 259.93854 89.7375 259.5323Q89.7375 259.0479 89.4875 258.68854Q89.25313 258.32916 88.81563 258.18854Q88.37813 258.0479 87.55 258.0479L85.56563 258.0479L85.56563 261.00104ZM91.55 262.1573L94.03438 253.28229L94.87813 253.28229L92.39375 262.1573L91.55 262.1573ZM94.925 260.1573L95.95625 260.00104Q96.05 260.62604 96.44063 260.95416Q96.84688 261.2823 97.58125 261.2823Q98.3 261.2823 98.64375 261.00104Q99.00313 260.70416 99.00313 260.2979Q99.00313 259.93854 98.69063 259.7354Q98.47188 259.5948 97.6125 259.37604Q96.45625 259.07916 96.00313 258.87604Q95.56563 258.6573 95.33125 258.2823Q95.09688 257.9073 95.09688 257.43854Q95.09688 257.0323 95.28438 256.6729Q95.47188 256.31354 95.8 256.07916Q96.05 255.90729 96.47188 255.78229Q96.89375 255.65729 97.39375 255.65729Q98.1125 255.65729 98.65938 255.87604Q99.22188 256.07916 99.4875 256.43854Q99.75313 256.7979 99.84688 257.39166L98.81563 257.5323Q98.75313 257.06354 98.40938 256.7979Q98.08125 256.51666 97.45625 256.51666Q96.7375 256.51666 96.425 256.76666Q96.1125 257.00104 96.1125 257.32916Q96.1125 257.5323 96.2375 257.68854Q96.37813 257.8604 96.64375 257.9698Q96.8 258.0323 97.58125 258.2354Q98.70625 258.5479 99.14375 258.7354Q99.58125 258.9229 99.83125 259.2823Q100.08125 259.64166 100.08125 260.18854Q100.08125 260.7198 99.76875 261.18854Q99.47188 261.64166 98.89375 261.9073Q98.31563 262.1573 97.58125 262.1573Q96.3625 262.1573 95.72188 261.6573Q95.09688 261.14166 94.925 260.1573Z" fill-rule="nonzero"/><path fill="#000000" d="M55.01875 219.58333L53.971874 219.58333L53.971874 212.86458Q53.58125 213.22395 52.95625 213.59895Q52.346874 213.95833 51.8625 214.1302L51.8625 213.11458Q52.7375 212.6927 53.39375 212.11458Q54.065624 211.52083 54.346874 210.95833L55.01875 210.95833L55.01875 219.58333ZM58.05 215.34895Q58.05 213.8177 58.3625 212.89583Q58.675 211.95833 59.284374 211.45833Q59.909374 210.95833 60.846874 210.95833Q61.534374 210.95833 62.05 211.23958Q62.58125 211.52083 62.925 212.05208Q63.26875 212.5677 63.45625 213.3177Q63.64375 214.0677 63.64375 215.34895Q63.64375 216.86458 63.33125 217.78645Q63.034374 218.70833 62.409374 219.22395Q61.8 219.72395 60.846874 219.72395Q59.6125 219.72395 58.89375 218.83333Q58.05 217.77083 58.05 215.34895ZM59.128124 215.34895Q59.128124 217.45833 59.628124 218.16145Q60.128124 218.86458 60.846874 218.86458Q61.58125 218.86458 62.065624 218.16145Q62.565624 217.45833 62.565624 215.34895Q62.565624 213.22395 62.065624 212.53645Q61.58125 211.83333 60.83125 211.83333Q60.1125 211.83333 59.675 212.4427Q59.128124 213.22395 59.128124 215.34895ZM65.05 215.34895Q65.05 213.8177 65.3625 212.89583Q65.675 211.95833 66.28438 211.45833Q66.90938 210.95833 67.84688 210.95833Q68.53438 210.95833 69.05 211.23958Q69.58125 211.52083 69.925 212.05208Q70.26875 212.5677 70.45625 213.3177Q70.64375 214.0677 70.64375 215.34895Q70.64375 216.86458 70.33125 217.78645Q70.03438 218.70833 69.40938 219.22395Q68.8 219.72395 67.84688 219.72395Q66.6125 219.72395 65.89375 218.83333Q65.05 217.77083 65.05 215.34895ZM66.12813 215.34895Q66.12813 217.45833 66.62813 218.16145Q67.12813 218.86458 67.84688 218.86458Q68.58125 218.86458 69.06563 218.16145Q69.56563 217.45833 69.56563 215.34895Q69.56563 213.22395 69.06563 212.53645Q68.58125 211.83333 67.83125 211.83333Q67.1125 211.83333 66.675 212.4427Q66.12813 213.22395 66.12813 215.34895ZM75.44063 219.58333L75.44063 210.98958L77.15938 210.98958L79.19063 217.0677Q79.47188 217.92708 79.59688 218.34895Q79.7375 217.8802 80.05 216.97395L82.1125 210.98958L83.64375 210.98958L83.64375 219.58333L82.55 219.58333L82.55 212.39583L80.05 219.58333L79.01875 219.58333L76.53438 212.27083L76.53438 219.58333L75.44063 219.58333ZM84.425 219.58333L84.425 210.98958L87.65938 210.98958Q88.64375 210.98958 89.2375 211.2552Q89.83125 211.52083 90.15938 212.0677Q90.50313 212.59895 90.50313 213.1927Q90.50313 213.73958 90.20625 214.22395Q89.90938 214.70833 89.3 215.0052Q90.08125 215.23958 90.4875 215.80208Q90.90938 216.34895 90.90938 217.09895Q90.90938 217.6927 90.65938 218.22395Q90.40938 218.73958 90.03438 219.02083Q89.65938 219.30208 89.08125 219.4427Q88.51875 219.58333 87.70625 219.58333L84.425 219.58333ZM85.56563 214.59895L87.425 214.59895Q88.175 214.59895 88.50313 214.5052Q88.94063 214.3802 89.15938 214.08333Q89.37813 213.77083 89.37813 213.3177Q89.37813 212.89583 89.175 212.5677Q88.97188 212.23958 88.58125 212.1302Q88.20625 212.0052 87.28438 212.0052L85.56563 212.0052L85.56563 214.59895ZM85.56563 218.5677L87.70625 218.5677Q88.25313 218.5677 88.47188 218.52083Q88.87813 218.45833 89.12813 218.30208Q89.39375 218.1302 89.56563 217.8177Q89.7375 217.5052 89.7375 217.09895Q89.7375 216.61458 89.4875 216.2552Q89.25313 215.89583 88.81563 215.7552Q88.37813 215.61458 87.55 215.61458L85.56563 215.61458L85.56563 218.5677ZM91.55 219.72395L94.03438 210.84895L94.87813 210.84895L92.39375 219.72395L91.55 219.72395ZM94.925 217.72395L95.95625 217.5677Q96.05 218.1927 96.44063 218.52083Q96.84688 218.84895 97.58125 218.84895Q98.3 218.84895 98.64375 218.5677Q99.00313 218.27083 99.00313 217.86458Q99.00313 217.5052 98.69063 217.30208Q98.47188 217.16145 97.6125 216.9427Q96.45625 216.64583 96.00313 216.4427Q95.56563 216.22395 95.33125 215.84895Q95.09688 215.47395 95.09688 215.0052Q95.09688 214.59895 95.28438 214.23958Q95.47188 213.8802 95.8 213.64583Q96.05 213.47395 96.47188 213.34895Q96.89375 213.22395 97.39375 213.22395Q98.1125 213.22395 98.65938 213.4427Q99.22188 213.64583 99.4875 214.0052Q99.75313 214.36458 99.84688 214.95833L98.81563 215.09895Q98.75313 214.6302 98.40938 214.36458Q98.08125 214.08333 97.45625 214.08333Q96.7375 214.08333 96.425 214.33333Q96.1125 214.5677 96.1125 214.89583Q96.1125 215.09895 96.2375 215.2552Q96.37813 215.42708 96.64375 215.53645Q96.8 215.59895 97.58125 215.80208Q98.70625 216.11458 99.14375 216.30208Q99.58125 216.48958 99.83125 216.84895Q100.08125 217.20833 100.08125 217.7552Q100.08125 218.28645 99.76875 218.7552Q99.47188 219.20833 98.89375 219.47395Q98.31563 219.72395 97.58125 219.72395Q96.3625 219.72395 95.72188 219.22395Q95.09688 218.70833 94.925 217.72395Z" fill-rule="nonzero"/><path fill="#000000" d="M55.01875 177.15L53.971874 177.15L53.971874 170.43124Q53.58125 170.79062 52.95625 171.16562Q52.346874 171.525 51.8625 171.69687L51.8625 170.68124Q52.7375 170.25937 53.39375 169.68124Q54.065624 169.0875 54.346874 168.525L55.01875 168.525L55.01875 177.15ZM58.05 174.9L59.159374 174.80624Q59.284374 175.61874 59.721874 176.025Q60.175 176.43124 60.815624 176.43124Q61.565624 176.43124 62.096874 175.85312Q62.628124 175.275 62.628124 174.3375Q62.628124 173.43124 62.1125 172.91562Q61.6125 172.38437 60.784374 172.38437Q60.284374 172.38437 59.8625 172.61874Q59.45625 172.85312 59.221874 173.2125L58.2375 173.0875L59.065624 168.68124L63.346874 168.68124L63.346874 169.68124L59.909374 169.68124L59.45625 171.99374Q60.221874 171.44687 61.065624 171.44687Q62.190624 171.44687 62.95625 172.22812Q63.7375 173.00937 63.7375 174.24374Q63.7375 175.4 63.065624 176.25937Q62.2375 177.29062 60.815624 177.29062Q59.64375 177.29062 58.89375 176.63437Q58.159374 175.97812 58.05 174.9ZM65.05 172.91562Q65.05 171.38437 65.3625 170.4625Q65.675 169.525 66.28438 169.025Q66.90938 168.525 67.84688 168.525Q68.53438 168.525 69.05 168.80624Q69.58125 169.0875 69.925 169.61874Q70.26875 170.13437 70.45625 170.88437Q70.64375 171.63437 70.64375 172.91562Q70.64375 174.43124 70.33125 175.35312Q70.03438 176.275 69.40938 176.79062Q68.8 177.29062 67.84688 177.29062Q66.6125 177.29062 65.89375 176.4Q65.05 175.3375 65.05 172.91562ZM66.12813 172.91562Q66.12813 175.025 66.62813 175.72812Q67.12813 176.43124 67.84688 176.43124Q68.58125 176.43124 69.06563 175.72812Q69.56563 175.025 69.56563 172.91562Q69.56563 170.79062 69.06563 170.10312Q68.58125 169.4 67.83125 169.4Q67.1125 169.4 66.675 170.00937Q66.12813 170.79062 66.12813 172.91562ZM75.44063 177.15L75.44063 168.55624L77.15938 168.55624L79.19063 174.63437Q79.47188 175.49374 79.59688 175.91562Q79.7375 175.44687 80.05 174.54062L82.1125 168.55624L83.64375 168.55624L83.64375 177.15L82.55 177.15L82.55 169.9625L80.05 177.15L79.01875 177.15L76.53438 169.8375L76.53438 177.15L75.44063 177.15ZM84.425 177.15L84.425 168.55624L87.65938 168.55624Q88.64375 168.55624 89.2375 168.82187Q89.83125 169.0875 90.15938 169.63437Q90.50313 170.16562 90.50313 170.75937Q90.50313 171.30624 90.20625 171.79062Q89.90938 172.275 89.3 172.57187Q90.08125 172.80624 90.4875 173.36874Q90.90938 173.91562 90.90938 174.66562Q90.90938 175.25937 90.65938 175.79062Q90.40938 176.30624 90.03438 176.5875Q89.65938 176.86874 89.08125 177.00937Q88.51875 177.15 87.70625 177.15L84.425 177.15ZM85.56563 172.16562L87.425 172.16562Q88.175 172.16562 88.50313 172.07187Q88.94063 171.94687 89.15938 171.65Q89.37813 171.3375 89.37813 170.88437Q89.37813 170.4625 89.175 170.13437Q88.97188 169.80624 88.58125 169.69687Q88.20625 169.57187 87.28438 169.57187L85.56563 169.57187L85.56563 172.16562ZM85.56563 176.13437L87.70625 176.13437Q88.25313 176.13437 88.47188 176.0875Q88.87813 176.025 89.12813 175.86874Q89.39375 175.69687 89.56563 175.38437Q89.7375 175.07187 89.7375 174.66562Q89.7375 174.18124 89.4875 173.82187Q89.25313 173.4625 88.81563 173.32187Q88.37813 173.18124 87.55 173.18124L85.56563 173.18124L85.56563 176.13437ZM91.55 177.29062L94.03438 168.41562L94.87813 168.41562L92.39375 177.29062L91.55 177.29062ZM94.925 175.29062L95.95625 175.13437Q96.05 175.75937 96.44063 176.0875Q96.84688 176.41562 97.58125 176.41562Q98.3 176.41562 98.64375 176.13437Q99.00313 175.8375 99.00313 175.43124Q99.00313 175.07187 98.69063 174.86874Q98.47188 174.72812 97.6125 174.50937Q96.45625 174.2125 96.00313 174.00937Q95.56563 173.79062 95.33125 173.41562Q95.09688 173.04062 95.09688 172.57187Q95.09688 172.16562 95.28438 171.80624Q95.47188 171.44687 95.8 171.2125Q96.05 171.04062 96.47188 170.91562Q96.89375 170.79062 97.39375 170.79062Q98.1125 170.79062 98.65938 171.00937Q99.22188 171.2125 99.4875 171.57187Q99.75313 171.93124 99.84688 172.525L98.81563 172.66562Q98.75313 172.19687 98.40938 171.93124Q98.08125 171.65 97.45625 171.65Q96.7375 171.65 96.425 171.9Q96.1125 172.13437 96.1125 172.4625Q96.1125 172.66562 96.2375 172.82187Q96.37813 172.99374 96.64375 173.10312Q96.8 173.16562 97.58125 173.36874Q98.70625 173.68124 99.14375 173.86874Q99.58125 174.05624 99.83125 174.41562Q100.08125 174.775 100.08125 175.32187Q100.08125 175.85312 99.76875 176.32187Q99.47188 176.775 98.89375 177.04062Q98.31563 177.29062 97.58125 177.29062Q96.3625 177.29062 95.72188 176.79062Q95.09688 176.275 94.925 175.29062Z" fill-rule="nonzero"/><path fill="#000000" d="M56.596874 133.70103L56.596874 134.71666L50.909374 134.71666Q50.909374 134.34166 51.034374 133.98228Q51.253124 133.40416 51.721874 132.84166Q52.20625 132.27916 53.1125 131.54478Q54.51875 130.38853 55.003124 129.71666Q55.503124 129.04478 55.503124 128.45103Q55.503124 127.826035 55.05 127.40416Q54.596874 126.96666 53.878124 126.96666Q53.1125 126.96666 52.659374 127.419785Q52.20625 127.87291 52.190624 128.68541L51.1125 128.57603Q51.221874 127.357285 51.940624 126.732285Q52.675 126.09166 53.909374 126.09166Q55.14375 126.09166 55.8625 126.77916Q56.58125 127.46666 56.58125 128.48228Q56.58125 128.99791 56.3625 129.49791Q56.159374 129.98228 55.659374 130.54478Q55.175 131.09166 54.05 132.04478Q53.096874 132.84166 52.815624 133.13853Q52.55 133.41978 52.378124 133.70103L56.596874 133.70103ZM58.05 130.48228Q58.05 128.95103 58.3625 128.02916Q58.675 127.09166 59.284374 126.59166Q59.909374 126.09166 60.846874 126.09166Q61.534374 126.09166 62.05 126.37291Q62.58125 126.65416 62.925 127.18541Q63.26875 127.701035 63.45625 128.45103Q63.64375 129.20103 63.64375 130.48228Q63.64375 131.99791 63.33125 132.91978Q63.034374 133.84166 62.409374 134.35728Q61.8 134.85728 60.846874 134.85728Q59.6125 134.85728 58.89375 133.96666Q58.05 132.90416 58.05 130.48228ZM59.128124 130.48228Q59.128124 132.59166 59.628124 133.29478Q60.128124 133.99791 60.846874 133.99791Q61.58125 133.99791 62.065624 133.29478Q62.565624 132.59166 62.565624 130.48228Q62.565624 128.35728 62.065624 127.669785Q61.58125 126.96666 60.83125 126.96666Q60.1125 126.96666 59.675 127.576035Q59.128124 128.35728 59.128124 130.48228ZM65.05 130.48228Q65.05 128.95103 65.3625 128.02916Q65.675 127.09166 66.28438 126.59166Q66.90938 126.09166 67.84688 126.09166Q68.53438 126.09166 69.05 126.37291Q69.58125 126.65416 69.925 127.18541Q70.26875 127.701035 70.45625 128.45103Q70.64375 129.20103 70.64375 130.48228Q70.64375 131.99791 70.33125 132.91978Q70.03438 133.84166 69.40938 134.35728Q68.8 134.85728 67.84688 134.85728Q66.6125 134.85728 65.89375 133.96666Q65.05 132.90416 65.05 130.48228ZM66.12813 130.48228Q66.12813 132.59166 66.62813 133.29478Q67.12813 133.99791 67.84688 133.99791Q68.58125 133.99791 69.06563 133.29478Q69.56563 132.59166 69.56563 130.48228Q69.56563 128.35728 69.06563 127.669785Q68.58125 126.96666 67.83125 126.96666Q67.1125 126.96666 66.675 127.576035Q66.12813 128.35728 66.12813 130.48228ZM75.44063 134.71666L75.44063 126.12291L77.15938 126.12291L79.19063 132.20103Q79.47188 133.06041 79.59688 133.48228Q79.7375 133.01353 80.05 132.10728L82.1125 126.12291L83.64375 126.12291L83.64375 134.71666L82.55 134.71666L82.55 127.52916L80.05 134.71666L79.01875 134.71666L76.53438 127.40416L76.53438 134.71666L75.44063 134.71666ZM84.425 134.71666L84.425 126.12291L87.65938 126.12291Q88.64375 126.12291 89.2375 126.388535Q89.83125 126.65416 90.15938 127.201035Q90.50313 127.732285 90.50313 128.32603Q90.50313 128.87291 90.20625 129.35728Q89.90938 129.84166 89.3 130.13853Q90.08125 130.37291 90.4875 130.93541Q90.90938 131.48228 90.90938 132.23228Q90.90938 132.82603 90.65938 133.35728Q90.40938 133.87291 90.03438 134.15416Q89.65938 134.43541 89.08125 134.57603Q88.51875 134.71666 87.70625 134.71666L84.425 134.71666ZM85.56563 129.73228L87.425 129.73228Q88.175 129.73228 88.50313 129.63853Q88.94063 129.51353 89.15938 129.21666Q89.37813 128.90416 89.37813 128.45103Q89.37813 128.02916 89.175 127.701035Q88.97188 127.37291 88.58125 127.263535Q88.20625 127.138535 87.28438 127.138535L85.56563 127.138535L85.56563 129.73228ZM85.56563 133.70103L87.70625 133.70103Q88.25313 133.70103 88.47188 133.65416Q88.87813 133.59166 89.12813 133.43541Q89.39375 133.26353 89.56563 132.95103Q89.7375 132.63853 89.7375 132.23228Q89.7375 131.74791 89.4875 131.38853Q89.25313 131.02916 88.81563 130.88853Q88.37813 130.74791 87.55 130.74791L85.56563 130.74791L85.56563 133.70103ZM91.55 134.85728L94.03438 125.982285L94.87813 125.982285L92.39375 134.85728L91.55 134.85728ZM94.925 132.85728L95.95625 132.70103Q96.05 133.32603 96.44063 133.65416Q96.84688 133.98228 97.58125 133.98228Q98.3 133.98228 98.64375 133.70103Q99.00313 133.40416 99.00313 132.99791Q99.00313 132.63853 98.69063 132.43541Q98.47188 132.29478 97.6125 132.07603Q96.45625 131.77916 96.00313 131.57603Q95.56563 131.35728 95.33125 130.98228Q95.09688 130.60728 95.09688 130.13853Q95.09688 129.73228 95.28438 129.37291Q95.47188 129.01353 95.8 128.77916Q96.05 128.60728 96.47188 128.48228Q96.89375 128.35728 97.39375 128.35728Q98.1125 128.35728 98.65938 128.57603Q99.22188 128.77916 99.4875 129.13853Q99.75313 129.49791 99.84688 130.09166L98.81563 130.23228Q98.75313 129.76353 98.40938 129.49791Q98.08125 129.21666 97.45625 129.21666Q96.7375 129.21666 96.425 129.46666Q96.1125 129.70103 96.1125 130.02916Q96.1125 130.23228 96.2375 130.38853Q96.37813 130.56041 96.64375 130.66978Q96.8 130.73228 97.58125 130.93541Q98.70625 131.24791 99.14375 131.43541Q99.58125 131.62291 99.83125 131.98228Q100.08125 132.34166 100.08125 132.88853Q100.08125 133.41978 99.76875 133.88853Q99.47188 134.34166 98.89375 134.60728Q98.31563 134.85728 97.58125 134.85728Q96.3625 134.85728 95.72188 134.35728Q95.09688 133.84166 94.925 132.85728Z" fill-rule="nonzero"/><path fill="#000000" d="M56.596874 91.26771L56.596874 92.28333L50.909374 92.28333Q50.909374 91.90833 51.034374 91.54896Q51.253124 90.97083 51.721874 90.40833Q52.20625 89.84583 53.1125 89.11146Q54.51875 87.95521 55.003124 87.28333Q55.503124 86.61146 55.503124 86.01771Q55.503124 85.39271 55.05 84.97083Q54.596874 84.53333 53.878124 84.53333Q53.1125 84.53333 52.659374 84.98646Q52.20625 85.43958 52.190624 86.25208L51.1125 86.14271Q51.221874 84.92396 51.940624 84.29896Q52.675 83.65833 53.909374 83.65833Q55.14375 83.65833 55.8625 84.34583Q56.58125 85.03333 56.58125 86.04896Q56.58125 86.56458 56.3625 87.06458Q56.159374 87.54896 55.659374 88.11146Q55.175 88.65833 54.05 89.61146Q53.096874 90.40833 52.815624 90.70521Q52.55 90.98646 52.378124 91.26771L56.596874 91.26771ZM58.05 90.03333L59.159374 89.93958Q59.284374 90.75208 59.721874 91.15833Q60.175 91.56458 60.815624 91.56458Q61.565624 91.56458 62.096874 90.98646Q62.628124 90.40833 62.628124 89.47083Q62.628124 88.56458 62.1125 88.04896Q61.6125 87.51771 60.784374 87.51771Q60.284374 87.51771 59.8625 87.75208Q59.45625 87.98646 59.221874 88.34583L58.2375 88.22083L59.065624 83.81458L63.346874 83.81458L63.346874 84.81458L59.909374 84.81458L59.45625 87.12708Q60.221874 86.58021 61.065624 86.58021Q62.190624 86.58021 62.95625 87.36146Q63.7375 88.14271 63.7375 89.37708Q63.7375 90.53333 63.065624 91.39271Q62.2375 92.42396 60.815624 92.42396Q59.64375 92.42396 58.89375 91.76771Q58.159374 91.11146 58.05 90.03333ZM65.05 88.04896Q65.05 86.51771 65.3625 85.59583Q65.675 84.65833 66.28438 84.15833Q66.90938 83.65833 67.84688 83.65833Q68.53438 83.65833 69.05 83.93958Q69.58125 84.22083 69.925 84.75208Q70.26875 85.26771 70.45625 86.01771Q70.64375 86.76771 70.64375 88.04896Q70.64375 89.56458 70.33125 90.48646Q70.03438 91.40833 69.40938 91.92396Q68.8 92.42396 67.84688 92.42396Q66.6125 92.42396 65.89375 91.53333Q65.05 90.47083 65.05 88.04896ZM66.12813 88.04896Q66.12813 90.15833 66.62813 90.86146Q67.12813 91.56458 67.84688 91.56458Q68.58125 91.56458 69.06563 90.86146Q69.56563 90.15833 69.56563 88.04896Q69.56563 85.92396 69.06563 85.23646Q68.58125 84.53333 67.83125 84.53333Q67.1125 84.53333 66.675 85.14271Q66.12813 85.92396 66.12813 88.04896ZM75.44063 92.28333L75.44063 83.68958L77.15938 83.68958L79.19063 89.76771Q79.47188 90.62708 79.59688 91.04896Q79.7375 90.58021 80.05 89.67396L82.1125 83.68958L83.64375 83.68958L83.64375 92.28333L82.55 92.28333L82.55 85.09583L80.05 92.28333L79.01875 92.28333L76.53438 84.97083L76.53438 92.28333L75.44063 92.28333ZM84.425 92.28333L84.425 83.68958L87.65938 83.68958Q88.64375 83.68958 89.2375 83.95521Q89.83125 84.22083 90.15938 84.76771Q90.50313 85.29896 90.50313 85.89271Q90.50313 86.43958 90.20625 86.92396Q89.90938 87.40833 89.3 87.70521Q90.08125 87.93958 90.4875 88.50208Q90.90938 89.04896 90.90938 89.79896Q90.90938 90.39271 90.65938 90.92396Q90.40938 91.43958 90.03438 91.72083Q89.65938 92.00208 89.08125 92.14271Q88.51875 92.28333 87.70625 92.28333L84.425 92.28333ZM85.56563 87.29896L87.425 87.29896Q88.175 87.29896 88.50313 87.20521Q88.94063 87.08021 89.15938 86.78333Q89.37813 86.47083 89.37813 86.01771Q89.37813 85.59583 89.175 85.26771Q88.97188 84.93958 88.58125 84.83021Q88.20625 84.70521 87.28438 84.70521L85.56563 84.70521L85.56563 87.29896ZM85.56563 91.26771L87.70625 91.26771Q88.25313 91.26771 88.47188 91.22083Q88.87813 91.15833 89.12813 91.00208Q89.39375 90.83021 89.56563 90.51771Q89.7375 90.20521 89.7375 89.79896Q89.7375 89.31458 89.4875 88.95521Q89.25313 88.59583 88.81563 88.45521Q88.37813 88.31458 87.55 88.31458L85.56563 88.31458L85.56563 91.26771ZM91.55 92.42396L94.03438 83.54896L94.87813 83.54896L92.39375 92.42396L91.55 92.42396ZM94.925 90.42396L95.95625 90.26771Q96.05 90.89271 96.44063 91.22083Q96.84688 91.54896 97.58125 91.54896Q98.3 91.54896 98.64375 91.26771Q99.00313 90.97083 99.00313 90.56458Q99.00313 90.20521 98.69063 90.00208Q98.47188 89.86146 97.6125 89.64271Q96.45625 89.34583 96.00313 89.14271Q95.56563 88.92396 95.33125 88.54896Q95.09688 88.17396 95.09688 87.70521Q95.09688 87.29896 95.28438 86.93958Q95.47188 86.58021 95.8 86.34583Q96.05 86.17396 96.47188 86.04896Q96.89375 85.92396 97.39375 85.92396Q98.1125 85.92396 98.65938 86.14271Q99.22188 86.34583 99.4875 86.70521Q99.75313 87.06458 99.84688 87.65833L98.81563 87.79896Q98.75313 87.33021 98.40938 87.06458Q98.08125 86.78333 97.45625 86.78333Q96.7375 86.78333 96.425 87.03333Q96.1125 87.26771 96.1125 87.59583Q96.1125 87.79896 96.2375 87.95521Q96.37813 88.12708 96.64375 88.23646Q96.8 88.29896 97.58125 88.50208Q98.70625 88.81458 99.14375 89.00208Q99.58125 89.18958 99.83125 89.54896Q100.08125 89.90833 100.08125 90.45521Q100.08125 90.98646 99.76875 91.45521Q99.47188 91.90833 98.89375 92.17396Q98.31563 92.42396 97.58125 92.42396Q96.3625 92.42396 95.72188 91.92396Q95.09688 91.40833 94.925 90.42396Z" fill-rule="nonzero"/><path fill="#000000" d="M152.04018 317.45L150.9933 317.45L150.9933 310.73126Q150.60268 311.09064 149.97768 311.46564Q149.3683 311.825 148.88393 311.9969L148.88393 310.98126Q149.75893 310.5594 150.41518 309.98126Q151.08705 309.3875 151.3683 308.825L152.04018 308.825L152.04018 317.45Z" fill-rule="nonzero"/><path fill="#000000" d="M218.0945 316.4344L218.0945 317.45L212.407 317.45Q212.407 317.075 212.532 316.71564Q212.75075 316.1375 213.2195 315.575Q213.70387 315.0125 214.61012 314.27814Q216.01637 313.1219 216.50075 312.45Q217.00075 311.77814 217.00075 311.1844Q217.00075 310.5594 216.54762 310.1375Q216.0945 309.7 215.37575 309.7Q214.61012 309.7 214.157 310.15314Q213.70387 310.60626 213.68825 311.41876L212.61012 311.3094Q212.7195 310.09064 213.43825 309.46564Q214.17262 308.825 215.407 308.825Q216.64137 308.825 217.36012 309.5125Q218.07887 310.2 218.07887 311.21564Q218.07887 311.73126 217.86012 312.23126Q217.657 312.71564 217.157 313.27814Q216.67262 313.825 215.54762 314.77814Q214.5945 315.575 214.31325 315.8719Q214.04762 316.15314 213.87575 316.4344L218.0945 316.4344Z" fill-rule="nonzero"/><path fill="#000000" d="M280.3988 317.45L280.3988 315.3875L276.68005 315.3875L276.68005 314.41876L280.60193 308.85626L281.4613 308.85626L281.4613 314.41876L282.61755 314.41876L282.61755 315.3875L281.4613 315.3875L281.4613 317.45L280.3988 317.45ZM280.3988 314.41876L280.3988 310.5594L277.7113 314.41876L280.3988 314.41876Z" fill-rule="nonzero"/><path fill="#000000" d="M343.125 312.79376Q342.46875 312.54376 342.14062 312.10626Q341.82812 311.65314 341.82812 311.04376Q341.82812 310.10626 342.5 309.46564Q343.1875 308.825 344.29688 308.825Q345.42188 308.825 346.10938 309.48126Q346.79688 310.1375 346.79688 311.075Q346.79688 311.66876 346.48438 312.10626Q346.17188 312.54376 345.53125 312.79376Q346.32812 313.04376 346.73438 313.6219Q347.14062 314.2 347.14062 314.9969Q347.14062 316.09064 346.35938 316.84064Q345.59375 317.59064 344.3125 317.59064Q343.04688 317.59064 342.26562 316.84064Q341.48438 316.09064 341.48438 314.96564Q341.48438 314.1219 341.90625 313.5594Q342.34375 312.9969 343.125 312.79376ZM342.90625 310.9969Q342.90625 311.60626 343.29688 311.9969Q343.70312 312.3875 344.32812 312.3875Q344.9375 312.3875 345.32812 312.0125Q345.71875 311.6219 345.71875 311.0594Q345.71875 310.48126 345.3125 310.09064Q344.90625 309.6844 344.3125 309.6844Q343.70312 309.6844 343.29688 310.075Q342.90625 310.46564 342.90625 310.9969ZM342.57812 314.96564Q342.57812 315.41876 342.78125 315.84064Q343.0 316.2625 343.42188 316.4969Q343.84375 316.73126 344.32812 316.73126Q345.07812 316.73126 345.5625 316.2469Q346.0625 315.7625 346.0625 315.0125Q346.0625 314.2469 345.5625 313.7469Q345.0625 313.2469 344.29688 313.2469Q343.54688 313.2469 343.0625 313.7469Q342.57812 314.23126 342.57812 314.96564Z" fill-rule="nonzero"/><path fill="#000000" d="M406.44495 317.45L405.39807 317.45L405.39807 310.73126Q405.00745 311.09064 404.38245 311.46564Q403.77307 311.825 403.2887 311.9969L403.2887 310.98126Q404.1637 310.5594 404.81995 309.98126Q405.49182 309.3875 405.77307 308.825L406.44495 308.825L406.44495 317.45ZM414.94495 310.96564L413.89807 311.04376Q413.75745 310.41876 413.50745 310.1375Q413.06995 309.6844 412.44495 309.6844Q411.94495 309.6844 411.55432 309.96564Q411.06995 310.34064 410.77307 311.04376Q410.49182 311.73126 410.4762 313.0125Q410.8512 312.4344 411.39807 312.15314Q411.96057 311.8719 412.56995 311.8719Q413.61682 311.8719 414.3512 312.65314Q415.1012 313.4344 415.1012 314.65314Q415.1012 315.46564 414.74182 316.16876Q414.39807 316.85626 413.7887 317.23126Q413.17932 317.59064 412.4137 317.59064Q411.08557 317.59064 410.25745 316.6219Q409.42932 315.65314 409.42932 313.4344Q409.42932 310.9344 410.3512 309.8094Q411.14807 308.825 412.50745 308.825Q413.52307 308.825 414.1637 309.40314Q414.81995 309.96564 414.94495 310.96564ZM410.64807 314.66876Q410.64807 315.21564 410.86682 315.71564Q411.1012 316.2 411.50745 316.46564Q411.92932 316.73126 412.39807 316.73126Q413.05432 316.73126 413.5387 316.2Q414.02307 315.65314 414.02307 314.73126Q414.02307 313.84064 413.5387 313.325Q413.06995 312.8094 412.3512 312.8094Q411.63245 312.8094 411.13245 313.325Q410.64807 313.84064 410.64807 314.66876Z" fill-rule="nonzero"/><path fill="#000000" d="M466.9524 315.1844L468.0149 315.04376Q468.18677 315.9344 468.62427 316.34064Q469.06177 316.73126 469.68677 316.73126Q470.43677 316.73126 470.9524 316.21564Q471.46802 315.7 471.46802 314.9344Q471.46802 314.21564 470.98364 313.7469Q470.5149 313.2625 469.78052 313.2625Q469.48364 313.2625 469.03052 313.3875L469.15552 312.45Q469.2649 312.46564 469.3274 312.46564Q469.99927 312.46564 470.53052 312.1219Q471.0774 311.7625 471.0774 311.02814Q471.0774 310.45 470.68677 310.075Q470.29614 309.6844 469.67114 309.6844Q469.06177 309.6844 468.6399 310.075Q468.23364 310.46564 468.12427 311.23126L467.06177 311.04376Q467.24927 309.9969 467.93677 309.41876Q468.62427 308.825 469.6399 308.825Q470.34302 308.825 470.93677 309.1375Q471.53052 309.4344 471.84302 309.95Q472.15552 310.46564 472.15552 311.0594Q472.15552 311.60626 471.85864 312.075Q471.56177 312.52814 470.98364 312.79376Q471.73364 312.96564 472.15552 313.52814Q472.5774 314.075 472.5774 314.91876Q472.5774 316.04376 471.74927 316.825Q470.93677 317.60626 469.68677 317.60626Q468.56177 317.60626 467.81177 316.9344Q467.06177 316.2469 466.9524 315.1844ZM479.49927 316.4344L479.49927 317.45L473.81177 317.45Q473.81177 317.075 473.93677 316.71564Q474.15552 316.1375 474.62427 315.575Q475.10864 315.0125 476.0149 314.27814Q477.42114 313.1219 477.90552 312.45Q478.40552 311.77814 478.40552 311.1844Q478.40552 310.5594 477.9524 310.1375Q477.49927 309.7 476.78052 309.7Q476.0149 309.7 475.56177 310.15314Q475.10864 310.60626 475.09302 311.41876L474.0149 311.3094Q474.12427 310.09064 474.84302 309.46564Q475.5774 308.825 476.81177 308.825Q478.04614 308.825 478.7649 309.5125Q479.48364 310.2 479.48364 311.21564Q479.48364 311.73126 479.2649 312.23126Q479.06177 312.71564 478.56177 313.27814Q478.0774 313.825 476.9524 314.77814Q475.99927 315.575 475.71802 315.8719Q475.4524 316.15314 475.28052 316.4344L479.49927 316.4344Z" fill-rule="nonzero"/><path fill="#000000" d="M536.89734 310.96564L535.85046 311.04376Q535.70984 310.41876 535.45984 310.1375Q535.02234 309.6844 534.39734 309.6844Q533.89734 309.6844 533.5067 309.96564Q533.02234 310.34064 532.72546 311.04376Q532.4442 311.73126 532.4286 313.0125Q532.8036 312.4344 533.35046 312.15314Q533.91296 311.8719 534.52234 311.8719Q535.5692 311.8719 536.3036 312.65314Q537.0536 313.4344 537.0536 314.65314Q537.0536 315.46564 536.6942 316.16876Q536.35046 316.85626 535.7411 317.23126Q535.1317 317.59064 534.3661 317.59064Q533.03796 317.59064 532.20984 316.6219Q531.3817 315.65314 531.3817 313.4344Q531.3817 310.9344 532.3036 309.8094Q533.10046 308.825 534.45984 308.825Q535.47546 308.825 536.1161 309.40314Q536.77234 309.96564 536.89734 310.96564ZM532.60046 314.66876Q532.60046 315.21564 532.8192 315.71564Q533.0536 316.2 533.45984 316.46564Q533.8817 316.73126 534.35046 316.73126Q535.0067 316.73126 535.4911 316.2Q535.97546 315.65314 535.97546 314.73126Q535.97546 313.84064 535.4911 313.325Q535.02234 312.8094 534.3036 312.8094Q533.58484 312.8094 533.08484 313.325Q532.60046 313.84064 532.60046 314.66876ZM541.8036 317.45L541.8036 315.3875L538.08484 315.3875L538.08484 314.41876L542.0067 308.85626L542.8661 308.85626L542.8661 314.41876L544.02234 314.41876L544.02234 315.3875L542.8661 315.3875L542.8661 317.45L541.8036 317.45ZM541.8036 314.41876L541.8036 310.5594L539.1161 314.41876L541.8036 314.41876Z" fill-rule="nonzero"/><path fill="#cc0000" d="M232.0 56.916668C232.0 56.364384 232.44771 55.916668 233.0 55.916668L243.0 55.916668C243.55229 55.916668 244.0 56.364384 244.0 56.916668L244.0 66.916664C244.0 67.46895 243.55229 67.916664 243.0 67.916664L233.0 67.916664C232.44771 67.916664 232.0 67.46895 232.0 66.916664Z" fill-rule="nonzero"/><path fill="#1a1a1a" d="M252.34375 63.479164L253.375 63.33854Q253.40625 64.322914 253.73438 64.68229Q254.0625 65.041664 254.65625 65.041664Q255.07812 65.041664 255.39062 64.854164Q255.70312 64.65104 255.8125 64.322914Q255.9375 63.979164 255.9375 63.24479L255.9375 57.322914L257.0625 57.322914L257.0625 63.18229Q257.0625 64.260414 256.79688 64.854164Q256.54688 65.447914 255.98438 65.760414Q255.42188 66.05729 254.65625 66.05729Q253.53125 66.05729 252.92188 65.416664Q252.32812 64.760414 252.34375 63.479164ZM261.10938 65.916664L261.10938 58.33854L258.28125 58.33854L258.28125 57.322914L265.09375 57.322914L265.09375 58.33854L262.25 58.33854L262.25 65.916664L261.10938 65.916664ZM265.40625 62.80729Q265.40625 61.072914 266.35938 60.24479Q267.15625 59.55729 268.3125 59.55729Q269.59375 59.55729 270.40625 60.40104Q271.23438 61.229164 271.23438 62.71354Q271.23438 63.916664 270.875 64.604164Q270.51562 65.291664 269.8125 65.68229Q269.125 66.05729 268.3125 66.05729Q267.01562 66.05729 266.20312 65.229164Q265.40625 64.385414 265.40625 62.80729ZM266.48438 62.80729Q266.48438 63.99479 267.0 64.58854Q267.53125 65.18229 268.3125 65.18229Q269.10938 65.18229 269.625 64.58854Q270.14062 63.99479 270.14062 62.77604Q270.14062 61.61979 269.60938 61.02604Q269.09375 60.43229 268.3125 60.43229Q267.53125 60.43229 267.0 61.02604Q266.48438 61.604164 266.48438 62.80729ZM272.79688 65.916664L272.79688 57.322914L273.85938 57.322914L273.85938 62.229164L276.34375 59.697914L277.71875 59.697914L275.32812 61.99479L277.95312 65.916664L276.65625 65.916664L274.59375 62.729164L273.85938 63.447914L273.85938 65.916664L272.79688 65.916664ZM278.79688 65.916664L278.79688 57.322914L279.85938 57.322914L279.85938 62.229164L282.34375 59.697914L283.71875 59.697914L281.32812 61.99479L283.95312 65.916664L282.65625 65.916664L280.59375 62.729164L279.85938 63.447914L279.85938 65.916664L278.79688 65.916664ZM284.79688 58.541664L284.79688 57.322914L285.85938 57.322914L285.85938 58.541664L284.79688 58.541664ZM284.79688 65.916664L284.79688 59.697914L285.85938 59.697914L285.85938 65.916664L284.79688 65.916664ZM290.09375 64.979164L290.25 65.90104Q289.79688 65.99479 289.45312 65.99479Q288.875 65.99479 288.5625 65.822914Q288.25 65.635414 288.10938 65.33854Q287.98438 65.041664 287.98438 64.08854L287.98438 60.510414L287.21875 60.510414L287.21875 59.697914L287.98438 59.697914L287.98438 58.15104L289.03125 57.52604L289.03125 59.697914L290.09375 59.697914L290.09375 60.510414L289.03125 60.510414L289.03125 64.15104Q289.03125 64.604164 289.07812 64.729164Q289.14062 64.854164 289.26562 64.93229Q289.39062 65.010414 289.625 65.010414Q289.8125 65.010414 290.09375 64.979164Z" fill-rule="nonzero"/><path fill="#3c78d8" d="M306.0 56.916668C306.0 56.364384 306.44772 55.916668 307.0 55.916668L317.0 55.916668C317.55228 55.916668 318.0 56.364384 318.0 56.916668L318.0 66.916664C318.0 67.46895 317.55228 67.916664 317.0 67.916664L307.0 67.916664C306.44772 67.916664 306.0 67.46895 306.0 66.916664Z" fill-rule="nonzero"/><path fill="#1a1a1a" d="M329.09375 64.979164L329.25 65.90104Q328.79688 65.99479 328.45312 65.99479Q327.875 65.99479 327.5625 65.822914Q327.25 65.635414 327.10938 65.33854Q326.98438 65.041664 326.98438 64.08854L326.98438 60.510414L326.21875 60.510414L326.21875 59.697914L326.98438 59.697914L326.98438 58.15104L328.03125 57.52604L328.03125 59.697914L329.09375 59.697914L329.09375 60.510414L328.03125 60.510414L328.03125 64.15104Q328.03125 64.604164 328.07812 64.729164Q328.14062 64.854164 328.26562 64.93229Q328.39062 65.010414 328.625 65.010414Q328.8125 65.010414 329.09375 64.979164ZM329.79688 58.541664L329.79688 57.322914L330.85938 57.322914L330.85938 58.541664L329.79688 58.541664ZM329.79688 65.916664L329.79688 59.697914L330.85938 59.697914L330.85938 65.916664L329.79688 65.916664ZM332.79688 65.916664L332.79688 57.322914L333.85938 57.322914L333.85938 62.229164L336.34375 59.697914L337.71875 59.697914L335.32812 61.99479L337.95312 65.916664L336.65625 65.916664L334.59375 62.729164L333.85938 63.447914L333.85938 65.916664L332.79688 65.916664ZM341.09375 64.979164L341.25 65.90104Q340.79688 65.99479 340.45312 65.99479Q339.875 65.99479 339.5625 65.822914Q339.25 65.635414 339.10938 65.33854Q338.98438 65.041664 338.98438 64.08854L338.98438 60.510414L338.21875 60.510414L338.21875 59.697914L338.98438 59.697914L338.98438 58.15104L340.03125 57.52604L340.03125 59.697914L341.09375 59.697914L341.09375 60.510414L340.03125 60.510414L340.03125 64.15104Q340.03125 64.604164 340.07812 64.729164Q340.14062 64.854164 340.26562 64.93229Q340.39062 65.010414 340.625 65.010414Q340.8125 65.010414 341.09375 64.979164ZM341.40625 62.80729Q341.40625 61.072914 342.35938 60.24479Q343.15625 59.55729 344.3125 59.55729Q345.59375 59.55729 346.40625 60.40104Q347.23438 61.229164 347.23438 62.71354Q347.23438 63.916664 346.875 64.604164Q346.51562 65.291664 345.8125 65.68229Q345.125 66.05729 344.3125 66.05729Q343.01562 66.05729 342.20312 65.229164Q341.40625 64.385414 341.40625 62.80729ZM342.48438 62.80729Q342.48438 63.99479 343.0 64.58854Q343.53125 65.18229 344.3125 65.18229Q345.10938 65.18229 345.625 64.58854Q346.14062 63.99479 346.14062 62.77604Q346.14062 61.61979 345.60938 61.02604Q345.09375 60.43229 344.3125 60.43229Q343.53125 60.43229 343.0 61.02604Q342.48438 61.604164 342.48438 62.80729ZM348.79688 65.916664L348.79688 57.322914L349.85938 57.322914L349.85938 62.229164L352.34375 59.697914L353.71875 59.697914L351.32812 61.99479L353.95312 65.916664L352.65625 65.916664L350.59375 62.729164L349.85938 63.447914L349.85938 65.916664L348.79688 65.916664ZM359.04688 63.916664L360.14062 64.041664Q359.89062 64.99479 359.1875 65.52604Q358.48438 66.05729 357.40625 66.05729Q356.04688 66.05729 355.23438 65.21354Q354.4375 64.36979 354.4375 62.854164Q354.4375 61.291664 355.25 60.43229Q356.0625 59.55729 357.34375 59.55729Q358.59375 59.55729 359.375 60.40104Q360.17188 61.24479 360.17188 62.791664Q360.17188 62.885414 360.17188 63.072914L355.53125 63.072914Q355.59375 64.104164 356.10938 64.65104Q356.625 65.18229 357.40625 65.18229Q357.98438 65.18229 358.39062 64.885414Q358.8125 64.572914 359.04688 63.916664ZM355.59375 62.21354L359.0625 62.21354Q359.0 61.416664 358.67188 61.02604Q358.15625 60.416664 357.35938 60.416664Q356.625 60.416664 356.125 60.90104Q355.64062 61.385414 355.59375 62.21354ZM361.79688 65.916664L361.79688 59.697914L362.73438 59.697914L362.73438 60.572914Q363.42188 59.55729 364.71875 59.55729Q365.28125 59.55729 365.75 59.760414Q366.23438 59.96354 366.46875 60.291664Q366.70312 60.61979 366.79688 61.05729Q366.84375 61.354164 366.84375 62.08854L366.84375 65.916664L365.79688 65.916664L365.79688 62.135414Q365.79688 61.479164 365.67188 61.166664Q365.54688 60.854164 365.23438 60.666664Q364.92188 60.46354 364.5 60.46354Q363.82812 60.46354 363.32812 60.90104Q362.84375 61.322914 362.84375 62.510414L362.84375 65.916664L361.79688 65.916664Z" fill-rule="nonzero"/><path fill="#757575" d="M26.64375 33.753124L28.3625 33.971874Q28.08125 35.76875 26.909374 36.784374Q25.753124 37.784374 24.05 37.784374Q21.925 37.784374 20.628124 36.39375Q19.33125 35.003124 19.33125 32.409374Q19.33125 30.721874 19.878124 29.471874Q20.440624 28.20625 21.58125 27.58125Q22.721874 26.940624 24.065624 26.940624Q25.753124 26.940624 26.815624 27.8Q27.89375 28.659374 28.20625 30.221874L26.4875 30.4875Q26.253124 29.440624 25.628124 28.925Q25.003124 28.39375 24.128124 28.39375Q22.8 28.39375 21.971874 29.346874Q21.14375 30.3 21.14375 32.346874Q21.14375 34.440624 21.940624 35.39375Q22.7375 36.33125 24.034374 36.33125Q25.065624 36.33125 25.753124 35.70625Q26.45625 35.065624 26.64375 33.753124ZM29.83125 37.55L29.83125 23.2375L31.58125 23.2375L31.58125 37.55L29.83125 37.55ZM40.003124 37.55L38.2375 37.55L38.2375 26.346874Q37.6125 26.95625 36.58125 27.565624Q35.55 28.159374 34.721874 28.471874L34.721874 26.76875Q36.20625 26.08125 37.3 25.096874Q38.409374 24.096874 38.8625 23.175L40.003124 23.175L40.003124 37.55ZM44.378124 30.4875Q44.378124 27.95625 44.89375 26.409374Q45.425 24.846874 46.45625 24.01875Q47.4875 23.175 49.05 23.175Q50.20625 23.175 51.065624 23.64375Q51.940624 24.096874 52.503124 24.971874Q53.065624 25.846874 53.39375 27.1125Q53.721874 28.3625 53.721874 30.4875Q53.721874 33.003124 53.190624 34.55Q52.675 36.096874 51.64375 36.95625Q50.628124 37.8 49.05 37.8Q46.971874 37.8 45.8 36.315624Q44.378124 34.51875 44.378124 30.4875ZM46.190624 30.4875Q46.190624 34.01875 47.003124 35.190624Q47.83125 36.346874 49.05 36.346874Q50.253124 36.346874 51.08125 35.175Q51.909374 34.003124 51.909374 30.4875Q51.909374 26.95625 51.08125 25.8Q50.253124 24.628124 49.034374 24.628124Q47.815624 24.628124 47.096874 25.659374Q46.190624 26.95625 46.190624 30.4875ZM55.378124 30.4875Q55.378124 27.95625 55.89375 26.409374Q56.425 24.846874 57.45625 24.01875Q58.4875 23.175 60.05 23.175Q61.20625 23.175 62.065624 23.64375Q62.940624 24.096874 63.503124 24.971874Q64.06563 25.846874 64.39375 27.1125Q64.72188 28.3625 64.72188 30.4875Q64.72188 33.003124 64.19063 34.55Q63.675 36.096874 62.64375 36.95625Q61.628124 37.8 60.05 37.8Q57.971874 37.8 56.8 36.315624Q55.378124 34.51875 55.378124 30.4875ZM57.190624 30.4875Q57.190624 34.01875 58.003124 35.190624Q58.83125 36.346874 60.05 36.346874Q61.253124 36.346874 62.08125 35.175Q62.909374 34.003124 62.909374 30.4875Q62.909374 26.95625 62.08125 25.8Q61.253124 24.628124 60.034374 24.628124Q58.815624 24.628124 58.096874 25.659374Q57.190624 26.95625 57.190624 30.4875ZM66.87813 37.55L66.87813 23.2375L68.64375 23.2375L68.64375 31.39375L72.8 27.175L75.06563 27.175L71.1125 31.01875L75.47188 37.55L73.3 37.55L69.87813 32.253124L68.64375 33.440624L68.64375 37.55L66.87813 37.55ZM75.25313 41.51875L75.25313 40.253124L86.89375 40.253124L86.89375 41.51875L75.25313 41.51875ZM89.4875 37.55L87.8625 37.55L87.8625 23.2375L89.6125 23.2375L89.6125 28.346874Q90.7375 26.940624 92.45625 26.940624Q93.40938 26.940624 94.26875 27.33125Q95.12813 27.721874 95.675 28.425Q96.22188 29.1125 96.53438 30.096874Q96.84688 31.08125 96.84688 32.20625Q96.84688 34.878124 95.53438 36.33125Q94.22188 37.784374 92.37813 37.784374Q90.53438 37.784374 89.4875 36.253124L89.4875 37.55ZM89.47188 32.284374Q89.47188 34.14375 89.97188 34.9875Q90.81563 36.33125 92.22188 36.33125Q93.37813 36.33125 94.20625 35.33125Q95.05 34.33125 95.05 32.346874Q95.05 30.315624 94.2375 29.3625Q93.44063 28.39375 92.3 28.39375Q91.14375 28.39375 90.3 29.39375Q89.47188 30.39375 89.47188 32.284374ZM105.64375 36.26875Q104.65938 37.096874 103.75313 37.440624Q102.84688 37.784374 101.81563 37.784374Q100.1125 37.784374 99.19063 36.95625Q98.26875 36.1125 98.26875 34.815624Q98.26875 34.05 98.6125 33.425Q98.97188 32.8 99.53438 32.425Q100.09688 32.034374 100.8 31.83125Q101.31563 31.70625 102.3625 31.565624Q104.4875 31.315624 105.4875 30.971874Q105.50313 30.6125 105.50313 30.503124Q105.50313 29.440624 105.00313 28.9875Q104.33125 28.39375 103.00313 28.39375Q101.75313 28.39375 101.15938 28.83125Q100.58125 29.26875 100.3 30.378124L98.58125 30.14375Q98.81563 29.034374 99.34688 28.3625Q99.87813 27.675 100.89375 27.315624Q101.90938 26.940624 103.25313 26.940624Q104.58125 26.940624 105.40938 27.253124Q106.2375 27.565624 106.62813 28.05Q107.01875 28.51875 107.175 29.2375Q107.26875 29.690624 107.26875 30.8625L107.26875 33.20625Q107.26875 35.659374 107.37813 36.315624Q107.4875 36.95625 107.83125 37.55L105.9875 37.55Q105.72188 37.003124 105.64375 36.26875ZM105.4875 32.346874Q104.53438 32.7375 102.6125 33.003124Q101.53438 33.159374 101.08125 33.3625Q100.64375 33.55 100.39375 33.925Q100.14375 34.3 100.14375 34.76875Q100.14375 35.471874 100.675 35.940624Q101.20625 36.409374 102.2375 36.409374Q103.25313 36.409374 104.03438 35.971874Q104.83125 35.51875 105.20625 34.753124Q105.4875 34.14375 105.4875 32.9875L105.4875 32.346874ZM109.15938 34.45625L110.90938 34.175Q111.05 35.221874 111.72188 35.784374Q112.39375 36.33125 113.59688 36.33125Q114.8 36.33125 115.37813 35.846874Q115.97188 35.346874 115.97188 34.690624Q115.97188 34.096874 115.45625 33.753124Q115.09688 33.51875 113.65938 33.159374Q111.72188 32.659374 110.97188 32.315624Q110.2375 31.95625 109.84688 31.33125Q109.45625 30.690624 109.45625 29.925Q109.45625 29.2375 109.76875 28.64375Q110.09688 28.05 110.64375 27.659374Q111.05 27.3625 111.75313 27.159374Q112.47188 26.940624 113.28438 26.940624Q114.50313 26.940624 115.425 27.3Q116.34688 27.64375 116.78438 28.253124Q117.22188 28.846874 117.39375 29.846874L115.675 30.08125Q115.55 29.284374 114.9875 28.846874Q114.425 28.39375 113.40938 28.39375Q112.19063 28.39375 111.675 28.8Q111.15938 29.190624 111.15938 29.721874Q111.15938 30.065624 111.37813 30.346874Q111.58125 30.628124 112.05 30.815624Q112.31563 30.909374 113.59688 31.253124Q115.47188 31.753124 116.20625 32.08125Q116.94063 32.39375 117.3625 33.003124Q117.78438 33.596874 117.78438 34.503124Q117.78438 35.378124 117.26875 36.159374Q116.75313 36.940624 115.78438 37.3625Q114.81563 37.784374 113.59688 37.784374Q111.58125 37.784374 110.51875 36.940624Q109.45625 36.096874 109.15938 34.45625ZM126.97188 34.20625L128.78438 34.440624Q128.3625 36.01875 127.19063 36.909374Q126.03438 37.784374 124.22188 37.784374Q121.95625 37.784374 120.6125 36.39375Q119.28438 34.9875 119.28438 32.45625Q119.28438 29.83125 120.62813 28.39375Q121.97188 26.940624 124.12813 26.940624Q126.20625 26.940624 127.51875 28.3625Q128.84688 29.76875 128.84688 32.346874Q128.84688 32.503124 128.83125 32.815624L121.09688 32.815624Q121.19063 34.51875 122.06563 35.425Q122.94063 36.33125 124.2375 36.33125Q125.20625 36.33125 125.87813 35.83125Q126.56563 35.315624 126.97188 34.20625ZM121.19063 31.3625L126.9875 31.3625Q126.87813 30.065624 126.33125 29.409374Q125.4875 28.39375 124.14375 28.39375Q122.94063 28.39375 122.1125 29.20625Q121.28438 30.003124 121.19063 31.3625Z" fill-rule="nonzero"/></svg>